<svg id="Layer_1" enable-background="new 0 0 497 497" height="512" viewBox="0 0 497 497" width="512" xmlns="http://www.w3.org/2000/svg"><g><path d="m14.061 129.509 47.011 121.067h146.492 40.498 191.713l47.011-121.067-235.935-46.337z" fill="#9b4f1d"/><path d="m420.095 200.914c-13.727-.479-26.224 5.25-34.811 14.657-5.301-18.12-21.719-31.639-41.619-32.333-10-.349-19.348 2.597-27.009 7.856-7.669-12.218-21.065-20.541-36.569-21.082-22.707-.792-42.061 15.385-45.878 37.144-4.753-1.927-9.918-3.069-15.341-3.258-12.215-.426-23.455 4.064-31.836 11.685-4.302-19.59-21.417-34.556-42.386-35.288-18.711-.653-35.147 10.216-42.49 26.235-6.447-3.999-13.987-6.431-22.113-6.715-24.838-.867-45.675 18.566-46.542 43.403-.867 24.838 18.566 45.675 43.403 46.542 18.711.653 320.151.404 340.051 1.098 24.838.867 45.675-18.566 46.542-43.403.868-24.836-18.564-45.674-43.402-46.541z" fill="#fffd87"/><g><path d="m420.095 200.914c-13.727-.479-26.224 5.25-34.811 14.657-5.301-18.12-21.719-31.639-41.619-32.333-10-.349-19.348 2.597-27.009 7.856-7.669-12.218-21.066-20.541-36.568-21.082-18.124-.632-34.101 9.551-41.758 24.749 6.524-3.284 13.942-5.022 21.758-4.749 15.503.541 28.899 8.863 36.568 21.082 7.661-5.26 17.009-8.205 27.009-7.856 19.9.694 36.318 14.213 41.619 32.333 8.587-9.407 21.084-15.136 34.811-14.657 24.838.867 44.27 21.704 43.403 46.542-.234 6.71-1.936 13.019-4.771 18.646 14.207-7.153 24.177-21.629 24.771-38.646.867-24.837-18.565-45.675-43.403-46.542z" fill="#faf75a"/></g><g><g><path d="m486.786 129.509h-472.726v-23.972c0-49.467 40.101-89.568 89.568-89.568h293.59c49.467 0 89.568 40.101 89.568 89.568z" fill="#f0b86c"/><g><path d="m199.729 129.509h-94.936v-111.043c0-10.199 8.268-18.466 18.466-18.466h58.005c10.198 0 18.466 8.267 18.466 18.466v111.043z" fill="#bf7341"/><path d="m181.264 0h-30c10.198 0 18.466 8.267 18.466 18.466v111.043h30v-111.043c-.001-10.199-8.268-18.466-18.466-18.466z" fill="#b5632d"/><path d="m396.053 129.509h-94.936v-111.043c0-10.199 8.268-18.466 18.466-18.466h58.005c10.198 0 18.466 8.267 18.466 18.466v111.043z" fill="#bf7341"/><path d="m377.588 0h-30c10.198 0 18.466 8.267 18.466 18.466v111.043h30v-111.043c-.001-10.199-8.268-18.466-18.466-18.466z" fill="#b5632d"/></g></g><g><path d="m14.06 299.247h472.726v187.753c0 5.523-4.477 10-10 10h-452.726c-5.523 0-10-4.477-10-10z" fill="#f0b86c"/><path d="m480.928 299.33h-464.856c-8.876 0-16.072-7.196-16.072-16.072v-17.595c0-8.876 7.196-16.072 16.072-16.072h173.04l64.388 20 54.5-20h172.928c8.876 0 16.072 7.195 16.072 16.072v17.595c0 8.876-7.195 16.072-16.072 16.072z" fill="#bf7341"/><path d="m480.928 249.592h-30c8.876 0 16.072 7.195 16.072 16.072v17.595c0 8.876-7.196 16.072-16.072 16.072h30c8.876 0 16.072-7.195 16.072-16.072v-17.595c0-8.877-7.196-16.072-16.072-16.072z" fill="#b5632d"/><g><path d="m104.793 298.79h94.936v198.192h-94.936z" fill="#bf7341"/><path d="m169.729 298.79h30v198.192h-30z" fill="#b5632d"/><path d="m301.117 298.79h94.936v198.192h-94.936z" fill="#bf7341"/><path d="m366.053 298.79h30v198.192h-30z" fill="#b5632d"/></g><g><path d="m265.377 360.764c33.957-25.646 51.849-61.691 60.117-83.352.142-.371.273-.745.394-1.119 4.203-13.048-5.982-26.331-19.689-26.371l-115.287-.331c-13.599-.039-23.845 12.988-19.911 26.005.233.77.509 1.534.829 2.289 9.096 21.436 27.689 56.577 59.674 82.388 9.818 7.923 23.806 8.094 33.873.491z" fill="#ffe600"/><path d="m306.198 249.922h-30c13.708.039 23.892 13.323 19.689 26.371-.121.375-.252.748-.394 1.119-8.268 21.661-26.16 57.706-60.117 83.352-.53.4-1.076.767-1.627 1.124 9.623 6.277 22.303 5.918 31.627-1.124 33.957-25.646 51.849-61.691 60.117-83.352.142-.371.273-.745.394-1.119 4.204-13.047-5.981-26.331-19.689-26.371z" fill="#f7df00"/><path d="m248.5 282.077c-4.143 0-7.5 3.357-7.5 7.5v25.067c0 4.143 3.357 7.5 7.5 7.5s7.5-3.357 7.5-7.5v-25.067c0-4.142-3.357-7.5-7.5-7.5z" fill="#fc0"/></g></g></g><path d="m106.555 497h-82.495c-5.523 0-10-4.477-10-10v-82.495s38.186-7.182 67.646 22.278c27.552 27.552 24.849 70.217 24.849 70.217z" fill="#ffe600"/><path d="m81.707 426.783c-29.46-29.46-67.646-22.278-67.646-22.278v1.451c11.837 2.755 25.482 8.663 37.646 20.827 27.551 27.552 24.848 70.217 24.848 70.217h30s2.703-42.665-24.848-70.217z" fill="#f7df00"/><path d="m394.292 497h82.495c5.523 0 10-4.477 10-10v-82.495s-38.186-7.182-67.646 22.278c-27.552 27.552-24.849 70.217-24.849 70.217z" fill="#ffe600"/><path d="m456.786 405.956v81.044c0 5.523-4.477 10-10 10h30c5.523 0 10-4.477 10-10v-82.495s-13.168-2.466-30 1.451z" fill="#f7df00"/></g></svg>